<?xml version="1.0" standalone="no"?>
<!DOCTYPE svg PUBLIC "-//W3C//DTD SVG 20010904//EN"
 "http://www.w3.org/TR/2001/REC-SVG-20010904/DTD/svg10.dtd">
<svg version="1.0" xmlns="http://www.w3.org/2000/svg"
 width="287.000000pt" height="175.000000pt" viewBox="0 0 287.000000 175.000000"
 preserveAspectRatio="xMidYMid meet">
<metadata>
Created by potrace 1.16, written by Peter Selinger 2001-2019
</metadata>
<g transform="translate(0.000000,175.000000) scale(0.100000,-0.100000)"
fill="#4b8eeb" stroke="none">
<path d="M648 1106 c-127 -35 -204 -172 -168 -301 33 -117 207 -225 242 -150
14 32 1 48 -51 63 -52 16 -107 78 -116 131 -9 53 25 126 74 158 49 33 124 31
174 -2 50 -35 67 -71 67 -149 0 -55 3 -66 20 -71 56 -18 85 60 56 157 -36 124
-172 199 -298 164z"/>
<path d="M948 1110 c-36 -22 -19 -60 32 -75 74 -22 126 -98 117 -172 -13 -114
-147 -182 -238 -120 -49 33 -79 82 -79 131 0 62 -38 87 -75 49 -13 -13 -15
-26 -10 -62 14 -97 69 -173 150 -206 49 -21 139 -22 186 -2 136 56 191 228
113 353 -46 75 -152 131 -196 104z"/>
</g>
</svg>
